<svg width="1000" height="104" viewBox="0 0 1000 104" fill="none" xmlns="http://www.w3.org/2000/svg">
<path d="M80.9891 2.21582H0V83.2049H80.9891V2.21582Z" fill="white"/>
<path d="M161.849 82H149.909V11.1626H132.458V1.63345H179.358V11.1626H161.849V82ZM196.501 82H184.791V1.63345H196.501V19.7733C196.501 24.5953 195.755 28.6136 193.344 35.043L195.411 35.8466C200.118 24.9397 204.825 20.8066 212.23 20.8066C220.956 20.8066 225.433 25.6286 225.433 34.8134V82H213.78V36.8799C213.78 31.7709 211.599 28.9007 207.408 28.9007C200.921 28.9007 196.501 37.1669 196.501 48.6479V82ZM263.472 64.0323L274.149 65.6971C272.37 76.891 264.39 83.2629 253.254 83.2055C238.558 83.2055 231.784 74.193 231.784 57.603V46.1795C231.784 29.5321 239.304 20.5196 253.598 20.5196C266.801 20.5196 273.977 28.7285 273.977 43.7111C273.977 46.8683 273.805 50.8867 273.231 54.2161H243.151V59.2677C243.151 69.945 246.48 75.1688 253.426 75.1688C259.224 75.1688 262.496 71.6098 263.472 64.0323ZM253.483 28.6136C246.595 28.6136 243.151 33.8949 243.151 44.5721V46.1221H262.783V41.9889C262.783 32.919 259.798 28.6136 253.483 28.6136ZM321.696 82H298.792V1.63345H322.385C336.392 1.63345 343.453 8.00537 343.453 21.4955C343.453 31.7135 339.377 36.9373 331.512 38.4873V40.3816C340.755 41.8167 345.577 46.9831 345.577 58.9807C345.577 74.1356 336.966 82 321.696 82ZM310.732 11.1626V35.5596H320.146C327.896 35.5596 331.57 31.8857 331.57 23.1028C331.57 14.6069 327.953 11.1626 320.261 11.1626H310.732ZM310.732 43.8259V72.4708H320.72C328.987 72.4708 333.062 68.3951 333.062 58.2345C333.062 48.0738 328.987 43.8259 320.663 43.8259H310.732ZM381.089 21.7251H392.743V82H381.089C381.262 78.5557 381.95 75.1114 384.189 68.6821L382.18 67.8784C377.473 78.7853 372.766 82.9185 365.361 82.9185C356.578 82.9185 352.157 78.0965 352.157 68.9117V21.7251H363.753V66.8452C363.753 71.9542 365.992 74.8244 370.183 74.8244C376.669 74.8244 381.089 66.5581 381.089 55.0772V21.7251ZM414.249 12.5977H401.677V1.63345H414.249V12.5977ZM413.789 82H402.079V21.7251H413.789V82ZM434.836 82H423.126V1.63345H434.836V82ZM458.064 82.9185C447.445 82.9185 441.762 74.48 441.762 58.5215V45.2036C441.762 29.2451 447.445 20.8066 458.007 20.8066C466.618 20.8066 470.808 26.3175 473.793 35.043L475.86 34.1819C473.506 27.4656 472.76 22.7584 472.76 17.5345V1.63345H484.413V82H472.99C473.162 79.5316 474.31 75.5707 475.917 69.4858L473.793 68.6821C470.923 77.6946 466.618 82.9185 458.064 82.9185ZM462.542 74.8244C469.144 74.8244 472.76 68.4525 472.76 56.7993V46.9831C472.76 35.33 469.144 28.9007 462.542 28.9007C456.515 28.9007 453.587 34.0671 453.587 44.9166V58.8659C453.587 69.6006 456.515 74.8244 462.542 74.8244ZM505.977 12.5977H493.405V1.63345H505.977V12.5977ZM505.518 82H493.807V21.7251H505.518V82ZM526.507 82H514.854V21.7251H526.507C526.335 25.1694 525.646 28.6136 523.407 35.043L525.416 35.8466C530.123 24.9397 534.831 20.8066 542.236 20.8066C551.019 20.8066 555.439 25.6286 555.439 34.8134V82H543.843V36.8799C543.843 31.7709 541.604 28.9007 537.414 28.9007C530.927 28.9007 526.507 37.1669 526.507 48.6479V82ZM580.734 67.0174L588.598 68.3377C596.405 69.7154 605.992 72.7578 605.992 85.7887C605.992 97.6141 597.725 103.297 582.054 103.297C567.129 103.297 559.322 98.4177 559.322 88.7163C559.322 81.5982 562.766 77.6946 569.253 76.5466V74.5948C564.718 72.8727 561.446 69.945 561.446 65.123C561.446 60.5307 564.259 57.89 569.655 57.5456V55.3642C565.177 52.1496 562.766 46.9257 562.766 39.8076C562.766 27.2359 570.343 20.577 583.26 20.577C586.015 20.577 588.541 20.864 590.78 21.4955C588.943 12.3681 593.133 5.70918 604.04 4.61849L605.647 15.468L601.112 15.9846C596.864 16.4439 594.166 18.166 594.568 22.9306C600.424 25.9156 603.638 31.5987 603.638 39.8076C603.638 52.3792 596.061 59.0955 583.26 59.0955C580.16 59.0955 577.347 58.6937 574.878 57.9474C572.123 58.5215 571.09 59.727 571.09 61.4491C571.09 64.3768 572.869 65.6397 580.734 67.0174ZM583.26 27.5804C577.634 27.5804 574.304 31.5987 574.304 39.8076C574.304 47.959 577.634 52.0922 583.26 52.0922C588.828 52.0922 592.1 47.959 592.1 39.8076C592.1 31.5987 588.828 27.5804 583.26 27.5804ZM582.571 95.2605C591.641 95.2605 596.29 92.3328 596.29 86.5924C596.29 80.6797 591.755 78.6705 583.948 77.465L576.486 76.3743C570.63 78.0965 568.449 81.0241 568.449 86.0757C568.449 92.0458 572.754 95.2605 582.571 95.2605ZM650.898 83.2055C633.849 83.2055 625.296 71.6672 625.296 49.3941V34.2393C625.296 12.0237 633.964 0.427952 650.783 0.427952C665.766 0.427952 674.664 9.49789 675.123 27.6952L663.47 30.1062C663.298 15.2958 659.222 9.95713 650.956 9.95713C641.714 9.95713 637.293 16.8457 637.293 32.4024V51.2311C637.293 66.7304 641.771 73.6763 651.128 73.6763C659.337 73.6763 663.642 68.1655 663.987 52.781L675.812 55.6513C675.18 74.2504 665.766 83.2055 650.898 83.2055ZM702.944 83.2055C689.052 83.2055 681.474 73.6763 681.474 57.5456V46.1795C681.474 29.934 689.052 20.5196 702.944 20.5196C716.836 20.5196 724.47 29.934 724.47 46.1795V57.5456C724.47 73.6763 716.836 83.2055 702.944 83.2055ZM702.944 75.1688C709.488 75.1688 712.473 70.0598 712.473 58.9807V44.8018C712.473 33.6079 709.488 28.5562 702.944 28.5562C696.4 28.5562 693.472 33.6079 693.472 44.8018V58.9807C693.472 70.0598 696.4 75.1688 702.944 75.1688ZM743.164 82H731.453V21.7251H743.221C743.049 25.112 742.417 28.1544 740.064 34.8134L742.073 35.6744C746.895 24.6527 750.971 20.8066 757.687 20.8066C765.494 20.8066 768.996 26.0878 766.642 35.2726L768.651 36.0189C772.497 25.112 777.032 20.8066 784.725 20.8066C792.934 20.8066 796.837 25.399 796.837 34.8134V82H785.184V36.5355C785.184 31.5987 783.29 28.9007 779.501 28.9007C773.531 28.9007 770.029 37.454 770.029 48.246V82H758.376V36.5929C758.376 31.7709 756.424 28.8433 752.865 28.8433C747.067 28.8433 743.164 37.1095 743.164 48.5331V82ZM832.063 20.8066C842.683 20.8066 848.366 29.2451 848.366 45.2036V58.5215C848.366 74.48 842.683 82.9185 832.12 82.9185C823.51 82.9185 819.319 77.4076 816.334 68.6821L814.267 69.5432C816.621 76.2595 817.367 80.9667 817.367 86.1905V102.092H805.714V21.7251H817.138C816.965 24.1935 815.817 28.1544 814.21 34.2393L816.334 35.043C819.204 26.0304 823.51 20.8066 832.063 20.8066ZM827.585 28.9007C820.984 28.9007 817.367 35.2726 817.367 46.9257V56.7419C817.367 68.3951 820.984 74.8244 827.585 74.8244C833.613 74.8244 836.54 69.658 836.54 58.8085V44.8592C836.54 34.1245 833.613 28.9007 827.585 28.9007ZM869.183 82.9185C858.563 82.9185 852.88 74.48 852.88 58.5215V45.2036C852.88 29.2451 858.563 20.8066 869.126 20.8066C877.851 20.8066 882.214 26.2027 884.912 35.043L887.036 34.2393C885.429 28.1544 884.28 24.1935 884.108 21.7251H895.532V82H884.108C884.28 79.5316 885.429 75.5707 887.036 69.4858L884.912 68.6821C882.042 77.6946 877.736 82.9185 869.183 82.9185ZM873.661 74.8244C880.262 74.8244 883.879 68.4525 883.879 56.7993V46.9257C883.879 35.2726 880.262 28.9007 873.661 28.9007C867.633 28.9007 864.648 34.1245 864.648 44.8592V58.8659C864.648 69.6006 867.633 74.8244 873.661 74.8244ZM916.579 82H904.925V21.7251H916.579C916.406 25.1694 915.718 28.6136 913.479 35.043L915.488 35.8466C920.195 24.9397 924.902 20.8066 932.308 20.8066C941.09 20.8066 945.511 25.6286 945.511 34.8134V82H933.915V36.8799C933.915 31.7709 931.676 28.9007 927.486 28.9007C920.999 28.9007 916.579 37.1669 916.579 48.6479V82ZM952.149 103.297L950.369 93.0217L956.626 92.3902C962.597 91.8736 963.917 90.1515 964.548 86.2479L965.18 82.287L948.877 21.7251H961.047L967.591 52.1496C969.026 58.5789 970.059 64.2045 970.92 72.2412H972.929C973.848 64.2045 974.824 58.6363 976.259 52.1496L982.573 21.7251H994.226L979.646 79.1298C975.398 95.9493 968.28 101.919 952.149 103.297Z" fill="white"/>
</svg>
